<svg width="82" height="92" viewBox="0 0 82 92" fill="none" xmlns="http://www.w3.org/2000/svg">
<g id="Group 289" filter="url(#filter0_d_337_8025)">
<g id="Group 206">
<g id="Group 169">
<g id="Group 166">
<path id="Union" d="M34.3914 3.74713L13.4772 15.1246C8.83863 17.648 5.95118 22.5058 5.95118 27.7863L5.95117 54.3203C5.95117 59.6009 8.83863 64.4587 13.4772 66.9821L34.3914 78.3595C38.6863 80.696 43.8727 80.6959 48.1676 78.3595L69.0818 66.9821C73.7204 64.4587 76.6078 59.6009 76.6078 54.3203L76.6078 27.7863C76.6078 22.5058 73.7204 17.648 69.0818 15.1246L48.1676 3.74713C43.8727 1.41072 38.6863 1.41072 34.3914 3.74713Z" fill="url(#paint0_linear_337_8025)"/>
<path id="Union_2" d="M34.3743 9.95091L18.818 18.4136C14.1969 20.9275 11.3203 25.767 11.3203 31.0277L11.3203 50.9361C11.3203 56.1968 14.1969 61.0363 18.818 63.5502L34.3743 72.0129C38.6529 74.3405 43.8198 74.3405 48.0985 72.0129L63.6548 63.5502C68.2759 61.0363 71.1525 56.1968 71.1525 50.9361L71.1525 31.0277C71.1525 25.767 68.2759 20.9275 63.6548 18.4136L48.0985 9.95091C43.8198 7.62329 38.6529 7.62329 34.3743 9.95091Z" fill="url(#paint1_linear_337_8025)"/>
<g id="Union_3" filter="url(#filter1_f_337_8025)">
<path d="M34.3743 9.95091L18.818 18.4136C14.1969 20.9275 11.3203 25.767 11.3203 31.0277L11.3203 50.9361C11.3203 56.1968 14.1969 61.0363 18.818 63.5502L34.3743 72.0129C38.6529 74.3405 43.8198 74.3405 48.0985 72.0129L63.6548 63.5502C68.2759 61.0363 71.1525 56.1968 71.1525 50.9361L71.1525 31.0277C71.1525 25.767 68.2759 20.9275 63.6548 18.4136L48.0985 9.95091C43.8198 7.62329 38.6529 7.62329 34.3743 9.95091Z" stroke="url(#paint2_linear_337_8025)" stroke-width="0.847887"/>
</g>
<g id="Mask Group" opacity="0.5">
<mask id="mask0_337_8025" style="mask-type:alpha" maskUnits="userSpaceOnUse" x="13" y="10" width="56" height="62">
<path id="Union_4" d="M34.8965 12.5892L20.9998 20.1423C16.6016 22.5328 13.8633 27.1377 13.8633 32.1436L13.8633 49.93C13.8633 54.9358 16.6015 59.5407 20.9998 61.9312L34.8965 69.4843C38.9641 71.6951 43.8747 71.6951 47.9422 69.4843L61.839 61.9312C66.2372 59.5407 68.9755 54.9358 68.9755 49.93L68.9755 32.1436C68.9755 27.1377 66.2372 22.5328 61.839 20.1423L47.9422 12.5892C43.8747 10.3784 38.9641 10.3784 34.8965 12.5892Z" fill="#A6D3DE"/>
</mask>
<g mask="url(#mask0_337_8025)">
<path id="Innershadow0.1fill" d="M34.8965 12.5892L20.9998 20.1423C16.6016 22.5328 13.8633 27.1377 13.8633 32.1436L13.8633 49.93C13.8633 54.9358 16.6015 59.5407 20.9998 61.9312L34.8965 69.4843C38.9641 71.6951 43.8747 71.6951 47.9422 69.4843L61.839 61.9312C66.2372 59.5407 68.9755 54.9358 68.9755 49.93L68.9755 32.1436C68.9755 27.1377 66.2372 22.5328 61.839 20.1423L47.9422 12.5892C43.8747 10.3784 38.9641 10.3784 34.8965 12.5892Z" fill="url(#paint3_radial_337_8025)"/>
<g id="Group 57">
<path id="Vector 5" opacity="0.5" d="M36.8134 74.2936L35.7188 7.77713H47.1213L46.0266 74.2936H36.8134Z" fill="url(#paint4_linear_337_8025)"/>
<path id="Vector 6" opacity="0.5" d="M36.6663 73.7034L2.46094 16.6458L12.3358 10.9444L44.6452 69.0967L36.6663 73.7034Z" fill="url(#paint5_linear_337_8025)"/>
<path id="Vector 7" opacity="0.5" d="M35.716 69.0968L68.0254 10.9445L77.9003 16.6459L43.6949 73.7036L35.716 69.0968Z" fill="url(#paint6_linear_337_8025)"/>
<rect id="Rectangle 3" x="13.8633" y="37.2347" width="55.1122" height="35.7922" fill="url(#paint7_linear_337_8025)"/>
</g>
<g id="Innershadow0.1fill_2" filter="url(#filter2_i_337_8025)">
<path d="M34.8965 12.5892L20.9998 20.1423C16.6016 22.5328 13.8633 27.1377 13.8633 32.1436L13.8633 49.93C13.8633 54.9358 16.6015 59.5407 20.9998 61.9312L34.8965 69.4843C38.9641 71.6951 43.8747 71.6951 47.9422 69.4843L61.839 61.9312C66.2372 59.5407 68.9755 54.9358 68.9755 49.93L68.9755 32.1436C68.9755 27.1377 66.2372 22.5328 61.839 20.1423L47.9422 12.5892C43.8747 10.3784 38.9641 10.3784 34.8965 12.5892Z" fill="#BCB0AE" fill-opacity="0.03"/>
</g>
</g>
</g>
</g>
</g>
</g>
</g>
<defs>
<filter id="filter0_d_337_8025" x="0.863848" y="1.99483" width="80.8309" height="89.9874" filterUnits="userSpaceOnUse" color-interpolation-filters="sRGB">
<feFlood flood-opacity="0" result="BackgroundImageFix"/>
<feColorMatrix in="SourceAlpha" type="matrix" values="0 0 0 0 0 0 0 0 0 0 0 0 0 0 0 0 0 0 127 0" result="hardAlpha"/>
<feOffset dy="6.7831"/>
<feGaussianBlur stdDeviation="2.54366"/>
<feColorMatrix type="matrix" values="0 0 0 0 0.475 0 0 0 0 0.425521 0 0 0 0 0.425521 0 0 0 0.35 0"/>
<feBlend mode="normal" in2="BackgroundImageFix" result="effect1_dropShadow_337_8025"/>
<feBlend mode="normal" in="SourceGraphic" in2="effect1_dropShadow_337_8025" result="shape"/>
</filter>
<filter id="filter1_f_337_8025" x="10.6421" y="7.52688" width="61.1884" height="66.91" filterUnits="userSpaceOnUse" color-interpolation-filters="sRGB">
<feFlood flood-opacity="0" result="BackgroundImageFix"/>
<feBlend mode="normal" in="SourceGraphic" in2="BackgroundImageFix" result="shape"/>
<feGaussianBlur stdDeviation="0.127183" result="effect1_foregroundBlur_337_8025"/>
</filter>
<filter id="filter2_i_337_8025" x="13.8633" y="10.9311" width="55.1123" height="60.2113" filterUnits="userSpaceOnUse" color-interpolation-filters="sRGB">
<feFlood flood-opacity="0" result="BackgroundImageFix"/>
<feBlend mode="normal" in="SourceGraphic" in2="BackgroundImageFix" result="shape"/>
<feColorMatrix in="SourceAlpha" type="matrix" values="0 0 0 0 0 0 0 0 0 0 0 0 0 0 0 0 0 0 127 0" result="hardAlpha"/>
<feOffset/>
<feGaussianBlur stdDeviation="5.70131"/>
<feComposite in2="hardAlpha" operator="arithmetic" k2="-1" k3="1"/>
<feColorMatrix type="matrix" values="0 0 0 0 0.508333 0 0 0 0 0.437506 0 0 0 0 0.415139 0 0 0 1 0"/>
<feBlend mode="normal" in2="shape" result="effect1_innerShadow_337_8025"/>
</filter>
<linearGradient id="paint0_linear_337_8025" x1="26.4416" y1="9.8922" x2="58.2385" y2="73.0603" gradientUnits="userSpaceOnUse">
<stop stop-color="#EDE9EA"/>
<stop offset="1" stop-color="#BEB5B6"/>
</linearGradient>
<linearGradient id="paint1_linear_337_8025" x1="26.1582" y1="15.1209" x2="53.5741" y2="65.7118" gradientUnits="userSpaceOnUse">
<stop stop-color="#C3BBBB"/>
<stop offset="1" stop-color="#ECE8E9"/>
</linearGradient>
<linearGradient id="paint2_linear_337_8025" x1="29.1258" y1="13.2837" x2="58.6615" y2="66.4183" gradientUnits="userSpaceOnUse">
<stop stop-color="#C9C2C3"/>
<stop offset="1" stop-color="white"/>
</linearGradient>
<radialGradient id="paint3_radial_337_8025" cx="0" cy="0" r="1" gradientUnits="userSpaceOnUse" gradientTransform="translate(41.4194 41.0368) rotate(90) scale(31.9928 27.5561)">
<stop stop-color="#DFD6D5"/>
<stop offset="1" stop-color="#918888"/>
</radialGradient>
<linearGradient id="paint4_linear_337_8025" x1="41.42" y1="7.77713" x2="41.42" y2="74.2936" gradientUnits="userSpaceOnUse">
<stop stop-color="white"/>
<stop offset="1" stop-color="#F2EDED" stop-opacity="0"/>
</linearGradient>
<linearGradient id="paint5_linear_337_8025" x1="7.39837" y1="13.7951" x2="40.6571" y2="71.3993" gradientUnits="userSpaceOnUse">
<stop stop-color="white"/>
<stop offset="1" stop-color="#F2EDED" stop-opacity="0"/>
</linearGradient>
<linearGradient id="paint6_linear_337_8025" x1="72.9628" y1="13.7952" x2="39.7041" y2="71.3994" gradientUnits="userSpaceOnUse">
<stop stop-color="white"/>
<stop offset="1" stop-color="#F2EDED" stop-opacity="0"/>
</linearGradient>
<linearGradient id="paint7_linear_337_8025" x1="41.4194" y1="52.7552" x2="41.2531" y2="70.8093" gradientUnits="userSpaceOnUse">
<stop stop-color="#DEDADA" stop-opacity="0"/>
<stop offset="1" stop-color="#DECFCF"/>
</linearGradient>
</defs>
</svg>
