<?xml version="1.0" encoding="utf-8"?>
<!-- Generator: Adobe Illustrator 24.3.0, SVG Export Plug-In . SVG Version: 6.00 Build 0)  -->
<svg version="1.1" id="Calque_1" xmlns="http://www.w3.org/2000/svg" xmlns:xlink="http://www.w3.org/1999/xlink" x="0px" y="0px"
	 viewBox="0 0 1190.55 841.89" style="enable-background:new 0 0 1190.55 841.89;" xml:space="preserve">
<g>
	<polygon points="223,321.67 223,293.73 191.13,293.73 141.89,293.73 114.28,293.73 114.28,321.67 114.28,360.85 141.89,360.85 
		141.89,321.67 191.13,321.67 191.13,516.87 152.91,516.87 152.91,544.47 191.13,544.47 223,544.47 261.23,544.47 261.23,516.87 
		223,516.87 	"/>
	<polygon points="386.55,293.73 386.55,321.5 505,321.5 505,401.66 396.02,401.66 396.02,429.26 505,429.26 505,516.87 
		386.55,516.87 386.55,544.47 505,544.47 536.87,544.47 536.87,516.87 536.87,429.26 536.87,401.66 536.87,321.5 536.87,293.73 
		505,293.73 	"/>
	<polygon points="649.81,293.73 649.81,321.5 768.25,321.5 768.25,401.66 659.28,401.66 659.28,429.26 768.25,429.26 768.25,516.87 
		649.81,516.87 649.81,544.47 768.25,544.47 800.13,544.47 800.13,516.87 800.13,429.26 800.13,401.66 800.13,321.5 800.13,293.73 
		768.25,293.73 	"/>
	<polygon points="1033.39,293.73 905.8,293.73 905.8,293.89 905.8,321.5 905.8,382.54 933.41,382.54 933.41,321.5 1033.39,321.5 
		1033.39,544.47 1065.27,544.47 1065.27,321.5 1065.27,293.73 	"/>
</g>
</svg>
