<svg width="30" height="30" viewBox="0 0 30 30" fill="none" xmlns="http://www.w3.org/2000/svg">
<g id="Game">
<path id="Game-2" opacity="0.4" d="M16.9576 5.82364V6.09821C16.2216 6.08376 15.4856 6.08376 14.7496 6.08376V5.83809C14.7496 4.84099 13.9105 4.03175 12.9095 4.03175H11.4522C9.78884 4.03175 8.43457 2.70229 8.43457 1.0838C8.43457 0.491325 8.93506 0 9.53859 0C10.1568 0 10.6426 0.491325 10.6426 1.0838C10.6426 1.51733 11.0106 1.86414 11.4522 1.86414H12.9095C15.1323 1.87859 16.9429 3.65603 16.9576 5.82364Z" fill="#8BD9FF"/>
<path id="Vector" d="M14.7498 6.08398C15.4858 6.08398 16.2218 6.08398 16.9578 6.09844C18.3562 6.09844 19.7547 6.12734 21.1678 6.14179C26.2758 6.14179 30 9.78337 30 14.8122V21.2717C30 26.3006 26.2758 29.9421 21.1678 29.9421C19.1217 29.9855 17.0756 29.9999 15.0147 29.9999C12.9539 29.9999 10.8783 29.9855 8.83219 29.9421C3.72424 29.9421 0 26.3006 0 21.2717V14.8122C0 9.78337 3.72424 6.14179 8.84691 6.14179C10.7753 6.11289 12.7478 6.08398 14.7498 6.08398ZM10.6281 14.3498C10.0098 14.3498 9.52404 14.8411 9.52404 15.4336V16.9509H7.96369C7.36016 16.9509 6.85967 17.4423 6.85967 18.0347C6.85967 18.6417 7.36016 19.1185 7.96369 19.1185H9.52404V20.6503C9.52404 21.2428 10.0098 21.7341 10.6281 21.7341C11.2316 21.7341 11.7321 21.2428 11.7321 20.6503V19.1185H13.2777C13.8813 19.1185 14.3817 18.6417 14.3817 18.0347C14.3817 17.4423 13.8813 16.9509 13.2777 16.9509H11.7321V15.4336C11.7321 14.8411 11.2316 14.3498 10.6281 14.3498ZM22.1982 19.4798H22.051C21.4328 19.4798 20.947 19.9711 20.947 20.5636C20.947 21.1705 21.4328 21.6474 22.051 21.6474H22.1982C22.8018 21.6474 23.3023 21.1705 23.3023 20.5636C23.3023 19.9711 22.8018 19.4798 22.1982 19.4798ZM19.6811 14.5088H19.5339C18.9156 14.5088 18.4298 15.0001 18.4298 15.5926C18.4298 16.1995 18.9156 16.6764 19.5339 16.6764H19.6811C20.2846 16.6764 20.7851 16.1995 20.7851 15.5926C20.7851 15.0001 20.2846 14.5088 19.6811 14.5088Z" fill="white"/>
</g>
</svg>
