<svg width="30" height="30" viewBox="0 0 30 30" fill="none" xmlns="http://www.w3.org/2000/svg">
<g id="Shop">
<g id="Vector">
<path d="M5.30316 3.81877L5.00772 7.29683C4.94863 7.96405 5.49519 8.5177 6.18948 8.5177H28.8055C29.4259 8.5177 29.9429 8.06342 29.9872 7.46718C30.1792 4.95446 28.185 2.91021 25.5704 2.91021H7.4451C7.29738 2.28558 7.00194 1.68934 6.54401 1.19248C6.18379 0.818582 5.74748 0.519802 5.26213 0.314671C4.77679 0.109541 4.25276 0.0024361 3.72255 0H1.1079C0.502249 0 0 0.48267 0 1.06471C0 1.64675 0.502249 2.12942 1.1079 2.12942H3.67823C4.13617 2.12942 4.56456 2.31397 4.87477 2.62629C5.18498 2.9528 5.3327 3.37869 5.30316 3.81877Z" fill="white"/>
<path d="M27.2555 10.9698H4.59524C3.97481 10.9698 3.47256 11.4241 3.41347 12.0061L2.88168 18.1814C2.67487 20.5948 4.65432 22.6816 7.18034 22.6816H23.6068C25.8226 22.6816 27.7725 20.9355 27.935 18.8061L28.4225 12.1765C28.4366 12.0218 28.4167 11.866 28.3642 11.7192C28.3118 11.5724 28.2278 11.4378 28.1179 11.3241C28.0079 11.2104 27.8743 11.1201 27.7258 11.059C27.5772 10.998 27.417 10.9676 27.2555 10.9698Z" fill="white"/>
<path d="M21.5557 30C22.2413 30 22.8988 29.7383 23.3836 29.2724C23.8684 28.8065 24.1408 28.1746 24.1408 27.5157C24.1408 26.8568 23.8684 26.2249 23.3836 25.759C22.8988 25.2931 22.2413 25.0313 21.5557 25.0313C20.8701 25.0313 20.2125 25.2931 19.7277 25.759C19.2429 26.2249 18.9706 26.8568 18.9706 27.5157C18.9706 28.1746 19.2429 28.8065 19.7277 29.2724C20.2125 29.7383 20.8701 30 21.5557 30ZM9.73805 30C10.4237 30 11.0812 29.7383 11.566 29.2724C12.0508 28.8065 12.3232 28.1746 12.3232 27.5157C12.3232 26.8568 12.0508 26.2249 11.566 25.759C11.0812 25.2931 10.4237 25.0313 9.73805 25.0313C9.05244 25.0313 8.39491 25.2931 7.91011 25.759C7.42531 26.2249 7.15295 26.8568 7.15295 27.5157C7.15295 28.1746 7.42531 28.8065 7.91011 29.2724C8.39491 29.7383 9.05244 30 9.73805 30Z" fill="white"/>
</g>
</g>
</svg>
