<svg xmlns="http://www.w3.org/2000/svg" width="305" height="65" viewBox="0 0 305 65" fill="none">
  <path d="M52.9513 58.6368C52.1593 59.4288 50.9713 60.1925 49.3873 60.9279C47.8598 61.6634 46.1344 62.3422 44.2109 62.9645C42.2875 63.5868 40.3075 64.0677 38.2709 64.4071C36.2343 64.8031 34.3108 65.0011 32.5005 65.0011C27.5222 65.0011 23.0248 64.2374 19.0082 62.7099C15.0481 61.1825 11.6255 59.0893 8.74036 56.4305C5.91176 53.715 3.73374 50.5187 2.2063 46.8415C0.735435 43.1643 0 39.176 0 34.8766C0 29.5022 0.848578 24.7785 2.54573 20.7053C4.24289 16.5756 6.56234 13.1247 9.50408 10.3527C12.4458 7.52406 15.8118 5.40261 19.6022 3.98832C23.449 2.57402 27.4939 1.86687 31.7368 1.86687C35.4706 1.86687 38.9215 2.29116 42.0895 3.13974C45.3141 3.98832 48.0578 5.06318 50.3207 6.36434L47.0961 15.529C46.0212 14.9067 44.6352 14.3127 42.9381 13.747C41.2409 13.1247 39.5155 12.6438 37.7617 12.3044C36.0646 11.965 34.4806 11.7952 33.0097 11.7952C29.4457 11.7952 26.2494 12.3044 23.4208 13.3227C20.6487 14.2844 18.2727 15.727 16.2927 17.6504C14.3127 19.5739 12.7852 21.9216 11.7104 24.6936C10.6921 27.4091 10.1829 30.5205 10.1829 34.028C10.1829 37.196 10.7204 40.0812 11.7952 42.6835C12.9267 45.2858 14.4824 47.5204 16.4624 49.3873C18.499 51.2541 20.875 52.6967 23.5905 53.715C26.3625 54.6767 29.4174 55.1576 32.7551 55.1576C34.6786 55.1576 36.5454 54.9879 38.3557 54.6484C40.166 54.309 41.6935 53.7716 42.9381 53.0361V42.7683H31.3974V33.2643H52.9513V58.6368Z" fill="#F417C4"/>
  <path d="M61.51 64.3222L88.8342 0H89.4282L116.752 64.3222H105.381L86.1188 15.529L93.2468 10.6921L71.2686 64.3222H61.51ZM78.6513 41.4106H99.7809L103.175 49.8115H75.6813L78.6513 41.4106Z" fill="#F417C4"/>
  <path d="M127.293 64.3222V0.339432H127.378L160.643 47.4355L156.4 46.5021L189.494 0.339432H189.664V64.3222H179.82V22.657L180.499 27.7485L158.182 59.3156H158.012L135.185 27.7485L136.882 23.0813V64.3222H127.293Z" fill="#F417C4"/>
  <path d="M206.599 2.54573H304.333V12.0498H216.527V28.5122L304.333 27.7485V38.1012H216.527V54.8182H304.333V64.3222H206.599V2.54573Z" fill="#F417C4"/>
</svg>