<svg width="57" height="46" viewBox="0 0 57 46" fill="none" xmlns="http://www.w3.org/2000/svg">
<path d="M32.4083 6.79265L57 45.2334L50.1848 45.37L32.2798 17.2041L17.2165 30.6974L32.4083 6.79265Z" fill="#D4ADFC"/>
<path d="M32.5878 30.2382C32.5878 32.423 30.8169 34.194 28.6325 34.194C26.448 34.194 24.6772 32.423 24.6772 30.2382C24.6772 28.0534 26.448 26.2823 28.6325 26.2823C30.8169 26.2823 32.5878 28.0534 32.5878 30.2382Z" fill="#5C469C"/>
<path d="M33.7871 21.8016L48.9403 45.7266L22.2731 45.7891L0 45.7891L3.28615 40.3631L39.0882 40.4067L33.7871 21.8016Z" fill="#1D267D"/>
<path d="M2.92307 39.4685L28.2803 0.789062L31.9647 6.09801L13.326 34.3492L34.5654 39.4685H2.92307Z" fill="#5C469C"/>
</svg>
