<svg width="30" height="30" viewBox="0 0 30 30" fill="none" xmlns="http://www.w3.org/2000/svg">
<g id="chat">
<path id="Vector" opacity="0.4" d="M30 6.37586V14.0269C30 15.9321 29.37 17.5374 28.245 18.6475C27.135 19.7727 25.53 20.4028 23.625 20.4028V23.1181C23.625 24.1383 22.485 24.7533 21.645 24.1833L20.19 23.2231C20.325 22.7581 20.385 22.248 20.385 21.7079V15.6021C20.385 12.5417 18.345 10.5014 15.285 10.5014H5.1C4.89 10.5014 4.695 10.5164 4.5 10.5314V6.37586C4.5 2.55034 7.05 0 10.875 0H23.625C27.45 0 30 2.55034 30 6.37586Z" fill="white"/>
<path id="Subtract" fill-rule="evenodd" clip-rule="evenodd" d="M20.385 21.708V15.6022C20.385 12.5417 18.345 10.5015 15.285 10.5015H5.1C4.89001 10.5015 4.69502 10.5165 4.50002 10.5315L4.5 10.5315C1.77 10.7865 0 12.7518 0 15.6022V21.708C0 23.2382 0.51 24.5134 1.41 25.4135C2.295 26.2986 3.57 26.8087 5.1 26.8087V28.984C5.09827 29.168 5.14703 29.349 5.24097 29.5073C5.3349 29.6655 5.47043 29.795 5.63281 29.8816C5.79519 29.9682 5.9782 30.0087 6.16195 29.9985C6.34569 29.9884 6.52314 29.928 6.675 29.8241L11.205 26.8087H15.285C17.805 26.8087 19.635 25.4285 20.19 23.2232C20.325 22.7581 20.385 22.248 20.385 21.708ZM9.15356 18.8276C9.15356 19.4464 9.64598 19.9528 10.2727 19.9528C10.8994 19.9528 11.3918 19.4464 11.3918 18.8276C11.3918 18.2088 10.8882 17.7025 10.2727 17.7025C9.65717 17.7025 9.15356 18.2088 9.15356 18.8276ZM13.0705 18.8276C13.0705 19.4464 13.563 19.9528 14.1897 19.9528C14.8052 19.9528 15.3088 19.4464 15.3088 18.8276C15.3088 18.2088 14.8052 17.7025 14.1897 17.7025C13.5742 17.7025 13.0705 18.2088 13.0705 18.8276ZM5.25 18.8276C5.25 19.4464 5.74242 19.9528 6.36914 19.9528C6.98467 19.9528 7.48828 19.4464 7.48828 18.8276C7.48828 18.2088 6.98467 17.7025 6.36914 17.7025C5.75361 17.7025 5.25 18.2088 5.25 18.8276Z" fill="white"/>
</g>
</svg>
