<svg width="27" height="27" viewBox="0 0 27 27" fill="none" xmlns="http://www.w3.org/2000/svg">
<g id="Logout">
<path id="Fill-1" opacity="0.4" d="M0 5.92933C0 2.66133 2.70698 0 6.03271 0H12.6475C15.9665 0 18.6667 2.65333 18.6667 5.916V20.7373C18.6667 24.0067 15.9597 26.6667 12.6326 26.6667H6.0205C2.7002 26.6667 0 24.0133 0 20.7507V19.4973V5.92933Z" fill="white"/>
<path id="Fill-3" d="M26.3721 12.6064L22.5777 8.72771C22.1856 8.32771 21.5545 8.32771 21.1636 8.73037C20.774 9.13304 20.7753 9.78237 21.1662 10.1824L23.2452 12.3064H21.2519H10.0648C9.51294 12.3064 9.06494 12.7664 9.06494 13.333C9.06494 13.901 9.51294 14.3597 10.0648 14.3597H23.2452L21.1662 16.4837C20.7753 16.8837 20.774 17.533 21.1636 17.9357C21.3597 18.137 21.6155 18.2384 21.8726 18.2384C22.1271 18.2384 22.383 18.137 22.5777 17.9384L26.3721 14.061C26.5604 13.8677 26.6669 13.6064 26.6669 13.333C26.6669 13.061 26.5604 12.7997 26.3721 12.6064Z" fill="white"/>
</g>
</svg>
