<svg width="30" height="30" viewBox="0 0 30 30" fill="none" xmlns="http://www.w3.org/2000/svg">
<g id="Notifocation">
<path id="Vector" opacity="0.4" d="M27.8396 22.77C27.4196 23.895 26.5346 24.75 25.3796 25.14C23.7596 25.68 22.0946 26.085 20.4146 26.37C20.2496 26.4 20.0846 26.43 19.9196 26.445C19.6496 26.49 19.3796 26.52 19.1096 26.55C18.7796 26.595 18.4346 26.625 18.0896 26.655C17.1446 26.73 16.2146 26.775 15.2696 26.775C14.3096 26.775 13.3496 26.73 12.4046 26.64C11.9996 26.61 11.6096 26.565 11.2196 26.505L10.5596 26.415C10.3946 26.385 10.2296 26.37 10.0646 26.34C8.39956 26.07 6.74956 25.665 5.14456 25.125C3.94456 24.72 3.02956 23.865 2.62456 22.77C2.21956 21.69 2.36956 20.43 3.01456 19.35L4.70956 16.53C5.06956 15.915 5.39956 14.73 5.39956 14.01V11.22C5.39956 5.77497 9.82456 1.34998 15.2696 1.34998C20.6996 1.34998 25.1246 5.77497 25.1246 11.22V14.01C25.1246 14.73 25.4546 15.915 25.8296 16.53L27.5246 19.35C28.1396 20.4 28.2596 21.63 27.8396 22.77Z" fill="white"/>
<path id="Vector_2" d="M15.2396 14.6401C14.9373 14.6401 14.6473 14.52 14.4335 14.3062C14.2197 14.0924 14.0996 13.8024 14.0996 13.5001V8.85008C14.0996 8.54774 14.2197 8.25777 14.4335 8.04398C14.6473 7.83019 14.9373 7.71008 15.2396 7.71008C15.542 7.71008 15.8319 7.83019 16.0457 8.04398C16.2595 8.25777 16.3796 8.54774 16.3796 8.85008V13.5001C16.3646 14.1301 15.8546 14.6401 15.2396 14.6401Z" fill="#3248A4"/>
<path id="Vector_3" d="M18.8159 1.98C17.7167 1.575 16.522 1.35 15.2636 1.35C14.0212 1.35 12.8265 1.56 11.7274 1.98C12.4123 0.765 13.7663 0 15.2636 0C16.7769 0 18.115 0.765 18.8159 1.98ZM19.7397 27.015C19.4048 27.8882 18.7924 28.6432 17.9859 29.1772C17.1793 29.7113 16.2178 29.9985 15.2318 30C13.9734 30 12.7309 29.52 11.8548 28.665C11.3451 28.215 10.9628 27.615 10.7397 27C10.9468 27.03 11.1539 27.045 11.3769 27.075C11.7433 27.12 12.1256 27.165 12.5079 27.195C13.4159 27.27 14.3397 27.315 15.2636 27.315C16.1716 27.315 17.0796 27.27 17.9716 27.195C18.3061 27.165 18.6406 27.15 18.9592 27.105L19.7397 27.015Z" fill="white"/>
</g>
</svg>
